<?xml version="1.0" standalone="no"?><!DOCTYPE svg PUBLIC "-//W3C//DTD SVG 1.1//EN" "http://www.w3.org/Graphics/SVG/1.1/DTD/svg11.dtd"><svg t="1711534512297" class="icon" viewBox="0 0 1024 1024" version="1.1" xmlns="http://www.w3.org/2000/svg" p-id="1723" width="64" height="64" xmlns:xlink="http://www.w3.org/1999/xlink"><path d="M274.709943 643.525486a174.533486 174.533486 0 0 1-5.441829-14.204343 14.555429 14.555429 0 0 0-18.505143-9.230629 14.613943 14.613943 0 0 0-9.245257 18.490515c1.872457 5.632 3.978971 11.146971 6.334172 16.544914a14.599314 14.599314 0 0 0 19.221943 7.636114 14.628571 14.628571 0 0 0 7.636114-19.236571zM441.4464 754.322286c-56.714971 0-109.2608-26.3168-144.149943-72.177372a14.628571 14.628571 0 0 0-23.274057 17.7152c40.477257 53.204114 101.493029 83.719314 167.424 83.719315a14.628571 14.628571 0 1 0 0-29.257143zM766.434743 915.499886h-614.4a29.257143 29.257143 0 0 0 0 58.514285h614.4a29.257143 29.257143 0 0 0 0-58.514285z" fill="#ffffff" p-id="1724"></path><path d="M903.241143 434.527086c-1.448229-14.994286-14.058057-31.0272-29.125486-31.0272h-104.901486v-13.399772c0-32.314514-15.681829-74.371657-47.996342-74.371657H165.668571c-32.314514 0-54.740114 27.428571-54.740114 59.743086v181.057828c0 181.394286 150.615771 328.967314 332.010057 328.967315 125.074286 0 235.563886-70.173257 291.240229-173.173029 29.461943-4.344686 116.0192-21.386971 147.982628-64.014628 33.4848-44.617143 24.766171-175.455086 21.079772-213.781943z m-733.7984 27.487085h541.257143v58.514286h-541.257143v-58.514286z m541.257143-87.771428v58.514286h-541.257143v-58.514286h541.257143z m-270.628572 452.739657c-149.357714 0-270.628571-121.080686-270.628571-270.453029v-6.743771h541.257143v6.743771c0 149.372343-121.270857 270.453029-270.628572 270.453029z m396.010057-216.064c-10.1376 13.5168-45.480229 27.516343-76.960914 36.030171 8.367543-28.964571 10.079086-58.792229 10.079086-90.404571v-94.5152h77.838628c3.803429 73.128229 0.775314 133.2224-10.9568 148.8896zM432.757029 295.614171a29.257143 29.257143 0 0 0 29.257142-29.257142v-190.171429a29.257143 29.257143 0 0 0-58.514285 0v190.171429a29.257143 29.257143 0 0 0 29.257143 29.257142zM579.042743 295.614171a29.257143 29.257143 0 0 0 29.257143-29.257142v-190.171429a29.257143 29.257143 0 0 0-58.514286 0v190.171429a29.257143 29.257143 0 0 0 29.257143 29.257142zM286.471314 295.614171a29.257143 29.257143 0 0 0 29.257143-29.257142v-190.171429a29.257143 29.257143 0 0 0-58.514286 0v190.171429a29.257143 29.257143 0 0 0 29.257143 29.257142z" fill="#ffffff" p-id="1725"></path></svg>